<?xml version="1.0" encoding="UTF-8" standalone="no"?>
<!-- Generator: Adobe Illustrator 18.0.0, SVG Export Plug-In . SVG Version: 6.00 Build 0)  -->

<svg
  xmlns:dc="http://purl.org/dc/elements/1.1/"
  xmlns:cc="http://creativecommons.org/ns#"
  xmlns:rdf="http://www.w3.org/1999/02/22-rdf-syntax-ns#"
  xmlns="http://www.w3.org/2000/svg"
  xmlns:sodipodi="http://sodipodi.sourceforge.net/DTD/sodipodi-0.dtd"
  xmlns:inkscape="http://www.inkscape.org/namespaces/inkscape"
  version="1.1"
  id="Capa_1"
  x="0px"
  y="0px"
  viewBox="0 0 60 60"
  xml:space="preserve"
  sodipodi:docname="credit-card.svg"
  style="enable-background:new 0 0 60 60;"
  inkscape:version="0.92.4 (5da689c313, 2019-01-14)"><metadata
   id="metadata65"><rdf:RDF><cc:Work
       rdf:about=""><dc:format>image/svg+xml</dc:format><dc:type
         rdf:resource="http://purl.org/dc/dcmitype/StillImage" /><dc:title></dc:title></cc:Work></rdf:RDF></metadata><defs
   id="defs63" /><sodipodi:namedview
   pagecolor="#ffffff"
   bordercolor="#666666"
   borderopacity="1"
   objecttolerance="10"
   gridtolerance="10"
   guidetolerance="10"
   inkscape:pageopacity="0"
   inkscape:pageshadow="2"
   inkscape:window-width="1920"
   inkscape:window-height="1017"
   id="namedview61"
   showgrid="false"
   inkscape:zoom="3.9333333"
   inkscape:cx="30.5"
   inkscape:cy="22.5"
   inkscape:window-x="1592"
   inkscape:window-y="-8"
   inkscape:window-maximized="1"
   inkscape:current-layer="Capa_1" />
<g
   id="g28"
   style="fill:#000000;stroke:#000000;stroke-opacity:1"
   transform="matrix(0.98360656,0,0,0.98360656,0.4918032,0.4918032)">
	<path
   d="M 55.783,8 H 4.217 C 1.892,8 0,9.892 0,12.217 V 47.783 C 0,50.108 1.892,52 4.217,52 H 55.783 C 58.108,52 60,50.108 60,47.783 V 12.217 C 60,9.892 58.108,8 55.783,8 Z M 58,47.783 C 58,49.005 57.006,50 55.783,50 H 4.217 C 2.994,50 2,49.005 2,47.783 V 12.217 C 2,10.995 2.994,10 4.217,10 H 55.783 C 57.006,10 58,10.995 58,12.217 Z"
   id="path2"
   style="fill:#000000;stroke:#000000;stroke-opacity:1"
   inkscape:connector-curvature="0" />
	<path
   d="m 6,18 h 9 c 0.553,0 1,-0.448 1,-1 0,-0.552 -0.447,-1 -1,-1 H 6 c -0.553,0 -1,0.448 -1,1 0,0.552 0.447,1 1,1 z"
   id="path4"
   style="fill:#000000;stroke:#000000;stroke-opacity:1"
   inkscape:connector-curvature="0" />
	<path
   d="m 28,16 h -9 c -0.553,0 -1,0.448 -1,1 0,0.552 0.447,1 1,1 h 9 c 0.553,0 1,-0.448 1,-1 0,-0.552 -0.447,-1 -1,-1 z"
   id="path6"
   style="fill:#000000;stroke:#000000;stroke-opacity:1"
   inkscape:connector-curvature="0" />
	<path
   d="M 6,23 H 7 C 7.553,23 8,22.552 8,22 8,21.448 7.553,21 7,21 H 6 c -0.553,0 -1,0.448 -1,1 0,0.552 0.447,1 1,1 z"
   id="path8"
   style="fill:#000000;stroke:#000000;stroke-opacity:1"
   inkscape:connector-curvature="0" />
	<path
   d="m 11,21 c -0.553,0 -1,0.448 -1,1 0,0.552 0.447,1 1,1 h 2 c 0.553,0 1,-0.448 1,-1 0,-0.552 -0.447,-1 -1,-1 z"
   id="path10"
   style="fill:#000000;stroke:#000000;stroke-opacity:1"
   inkscape:connector-curvature="0" />
	<path
   d="m 19,22 c 0,-0.552 -0.447,-1 -1,-1 h -1 c -0.553,0 -1,0.448 -1,1 0,0.552 0.447,1 1,1 h 1 c 0.553,0 1,-0.448 1,-1 z"
   id="path12"
   style="fill:#000000;stroke:#000000;stroke-opacity:1"
   inkscape:connector-curvature="0" />
	<path
   d="m 24,23 c 0.553,0 1,-0.448 1,-1 0,-0.552 -0.447,-1 -1,-1 h -2 c -0.553,0 -1,0.448 -1,1 0,0.552 0.447,1 1,1 z"
   id="path14"
   style="fill:#000000;stroke:#000000;stroke-opacity:1"
   inkscape:connector-curvature="0" />
	<path
   d="M 27.29,21.29 C 27.109,21.48 27,21.74 27,22 c 0,0.26 0.109,0.52 0.29,0.71 0.189,0.18 0.45,0.29 0.71,0.29 0.27,0 0.52,-0.11 0.71,-0.29 C 28.89,22.52 29,22.26 29,22 c 0,-0.26 -0.11,-0.52 -0.29,-0.71 -0.38,-0.37 -1.05,-0.37 -1.42,0 z"
   id="path16"
   style="fill:#000000;stroke:#000000;stroke-opacity:1"
   inkscape:connector-curvature="0" />
	<path
   d="M 37,27 H 55 V 15 H 37 Z m 2,-10 h 14 v 8 H 39 Z"
   id="path18"
   style="fill:#000000;stroke:#000000;stroke-opacity:1"
   inkscape:connector-curvature="0" />
	<path
   d="M 5,45 H 16 V 37 H 5 Z m 2,-6 h 7 v 4 H 7 Z"
   id="path20"
   style="fill:#000000;stroke:#000000;stroke-opacity:1"
   inkscape:connector-curvature="0" />
	<path
   d="M 18,45 H 29 V 37 H 18 Z m 2,-6 h 7 v 4 h -7 z"
   id="path22"
   style="fill:#000000;stroke:#000000;stroke-opacity:1"
   inkscape:connector-curvature="0" />
	<path
   d="M 31,45 H 42 V 37 H 31 Z m 2,-6 h 7 v 4 h -7 z"
   id="path24"
   style="fill:#000000;stroke:#000000;stroke-opacity:1"
   inkscape:connector-curvature="0" />
	<path
   d="M 44,45 H 55 V 37 H 44 Z m 2,-6 h 7 v 4 h -7 z"
   id="path26"
   style="fill:#000000;stroke:#000000;stroke-opacity:1"
   inkscape:connector-curvature="0" />
</g>
<g
   id="g30">
</g>
<g
   id="g32">
</g>
<g
   id="g34">
</g>
<g
   id="g36">
</g>
<g
   id="g38">
</g>
<g
   id="g40">
</g>
<g
   id="g42">
</g>
<g
   id="g44">
</g>
<g
   id="g46">
</g>
<g
   id="g48">
</g>
<g
   id="g50">
</g>
<g
   id="g52">
</g>
<g
   id="g54">
</g>
<g
   id="g56">
</g>
<g
   id="g58">
</g>
</svg>
