<?xml version="1.0" encoding="UTF-8" standalone="no"?>
<!-- Generator: Adobe Illustrator 19.0.0, SVG Export Plug-In . SVG Version: 6.00 Build 0)  -->

<svg
  xmlns:dc="http://purl.org/dc/elements/1.1/"
  xmlns:cc="http://creativecommons.org/ns#"
  xmlns:rdf="http://www.w3.org/1999/02/22-rdf-syntax-ns#"
  xmlns="http://www.w3.org/2000/svg"
  xmlns:sodipodi="http://sodipodi.sourceforge.net/DTD/sodipodi-0.dtd"
  xmlns:inkscape="http://www.inkscape.org/namespaces/inkscape"
  version="1.1"
  id="Capa_1"
  x="0px"
  y="0px"
  viewBox="0 0 512 512"
  style="enable-background:new 0 0 512 512;"
  xml:space="preserve"
  sodipodi:docname="inquiry-person.svg"
  inkscape:version="0.92.4 (5da689c313, 2019-01-14)"><metadata
   id="metadata43"><rdf:RDF><cc:Work
       rdf:about=""><dc:format>image/svg+xml</dc:format><dc:type
         rdf:resource="http://purl.org/dc/dcmitype/StillImage" /><dc:title></dc:title></cc:Work></rdf:RDF></metadata><defs
   id="defs41" /><sodipodi:namedview
   pagecolor="#ffffff"
   bordercolor="#666666"
   borderopacity="1"
   objecttolerance="10"
   gridtolerance="10"
   guidetolerance="10"
   inkscape:pageopacity="0"
   inkscape:pageshadow="2"
   inkscape:window-width="1600"
   inkscape:window-height="837"
   id="namedview39"
   showgrid="false"
   inkscape:zoom="0.4609375"
   inkscape:cx="238.64407"
   inkscape:cy="82.440678"
   inkscape:window-x="-8"
   inkscape:window-y="182"
   inkscape:window-maximized="1"
   inkscape:current-layer="Capa_1" />
<g
   id="g6"
   style="stroke:#000000;stroke-width:1.00194919;stroke-miterlimit:4;stroke-dasharray:none;stroke-opacity:1"
   transform="matrix(0.99805078,0,0,0.99805078,0.50066033,0.49999837)">
	<g
   id="g4"
   style="stroke:#000000;stroke-width:1.00194919;stroke-miterlimit:4;stroke-dasharray:none;stroke-opacity:1">
		<path
   d="m 475.077,497.152 -43.781,-39.806 c 7.824,-11.105 12.438,-24.627 12.438,-39.213 0,-37.641 -30.626,-68.267 -68.267,-68.267 -5.068,0 -10.002,0.572 -14.758,1.625 l -50.29,-27.43 c -7.253,-3.959 -11.75,-11.546 -11.75,-19.806 v -28.228 c 5.709,-7.484 22.076,-30.814 29.892,-61.764 8.055,-6.468 12.774,-16.154 12.774,-26.53 V 153.6 c 0,-8.218 -3.072,-16.188 -8.533,-22.4 V 85.811 C 333.28,81.118 335.149,53.171 314.95,30.122 297.423,10.129 268.973,0 230.402,0 191.823,0 163.373,10.129 145.854,30.123 125.638,53.172 127.516,81.118 128.002,85.812 V 131.2 c -5.47,6.212 -8.533,14.182 -8.533,22.4 v 34.133 c 0,10.377 4.719,20.062 12.774,26.53 7.817,30.95 24.183,54.281 29.892,61.764 v 28.228 c 0,8.26 -4.506,15.846 -11.75,19.806 l -76.143,41.523 c -24.738,13.5 -40.107,39.398 -40.107,67.584 v 36.164 c 0,4.71 3.814,8.533 8.533,8.533 h 299.797 c 9.788,5.43 21.037,8.533 33.001,8.533 16.915,0 32.402,-6.199 44.341,-16.426 l 43.783,39.807 c 1.638,1.485 3.695,2.219 5.743,2.219 2.313,0 4.634,-0.939 6.315,-2.79 3.166,-3.489 2.91,-8.882 -0.571,-12.056 z M 51.202,433.169 c 0,-21.939 11.964,-42.095 31.215,-52.599 l 76.134,-41.532 c 12.74,-6.946 20.651,-20.275 20.651,-34.782 v -31.189 c 0,-1.988 -0.708,-3.934 -1.988,-5.47 -0.205,-0.247 -21.163,-25.737 -29.099,-60.297 -0.495,-2.167 -1.818,-4.053 -3.678,-5.257 -4.949,-3.2 -7.902,-8.55 -7.902,-14.31 V 153.6 c 0,-4.787 2.031,-9.25 5.717,-12.578 1.792,-1.621 2.816,-3.925 2.816,-6.34 V 85.333 c 0,-0.375 -0.026,-0.742 -0.077,-1.118 -0.034,-0.239 -2.927,-23.876 13.696,-42.837 14.14,-16.137 38.272,-24.311 71.714,-24.311 33.323,0 57.395,8.124 71.561,24.141 16.614,18.782 13.875,42.803 13.85,43.008 -0.051,0.375 -0.077,0.742 -0.077,1.118 v 49.348 c 0,2.415 1.024,4.719 2.816,6.34 3.686,3.328 5.717,7.791 5.717,12.578 v 34.133 c 0,5.76 -2.953,11.11 -7.902,14.31 -1.869,1.203 -3.183,3.089 -3.686,5.257 -7.927,34.56 -28.885,60.049 -29.099,60.297 -1.271,1.536 -1.98,3.482 -1.98,5.47 v 31.189 c 0,14.507 7.91,27.836 20.651,34.782 l 37.914,20.685 c -19.745,11.978 -32.967,33.679 -32.967,58.41 0,16.134 5.639,30.97 15.034,42.667 H 51.202 Z m 298.566,29.221 c -0.376,-0.269 -0.775,-0.505 -1.193,-0.711 -14.576,-9.033 -24.307,-25.169 -24.307,-43.546 0,-23.249 15.572,-42.909 36.833,-49.135 0.553,-0.1 1.095,-0.253 1.618,-0.459 4.077,-1.048 8.349,-1.607 12.749,-1.607 28.237,0 51.2,22.963 51.2,51.2 0,13.01 -4.883,24.892 -12.902,33.933 -0.157,0.148 -0.314,0.295 -0.462,0.457 -0.148,0.163 -0.28,0.334 -0.413,0.505 -9.352,10.023 -22.663,16.306 -37.424,16.306 -9.364,0 -18.14,-2.537 -25.699,-6.943 z"
   id="path2"
   style="stroke:#000000;stroke-width:1.00194919;stroke-miterlimit:4;stroke-dasharray:none;stroke-opacity:1"
   inkscape:connector-curvature="0" />
	</g>
</g>
<g
   id="g8">
</g>
<g
   id="g10">
</g>
<g
   id="g12">
</g>
<g
   id="g14">
</g>
<g
   id="g16">
</g>
<g
   id="g18">
</g>
<g
   id="g20">
</g>
<g
   id="g22">
</g>
<g
   id="g24">
</g>
<g
   id="g26">
</g>
<g
   id="g28">
</g>
<g
   id="g30">
</g>
<g
   id="g32">
</g>
<g
   id="g34">
</g>
<g
   id="g36">
</g>
</svg>
