<?xml version="1.0" encoding="UTF-8" standalone="no"?>
<svg
  xmlns:dc="http://purl.org/dc/elements/1.1/"
  xmlns:cc="http://creativecommons.org/ns#"
  xmlns:rdf="http://www.w3.org/1999/02/22-rdf-syntax-ns#"
  xmlns="http://www.w3.org/2000/svg"
  height="479.07999"
  width="1606.4646"
  version="1.1"
  viewBox="0 0 1606.4646 479.07999"
  data-name="Layer 1"
  id="Layer_1">
  <metadata
     id="metadata13">
    <rdf:RDF>
      <cc:Work
         rdf:about="">
        <dc:format>image/svg+xml</dc:format>
        <dc:type
           rdf:resource="http://purl.org/dc/dcmitype/StillImage" />
        <dc:title>tejarat-orig</dc:title>
      </cc:Work>
    </rdf:RDF>
  </metadata>
  <defs
     id="defs4">
    <style
       id="style2">.cls-1{fill:#2e428d;}</style>
  </defs>
  <title
     id="title6">tejarat-orig</title>
  <path
     style="fill:#2e428d"
     id="path8"
     d="m 1363.9346,0.1 h 4.63 c 1.4667,44.94 2.9933,89.88 4.58,134.82 2.62,0.42 3.78,-3.2 5.51,-4.73 1.9,-3.1 6.28,-5 6.16,-9.05 v -121 h 4.23 c 6.47,0.81 13,1.17 19.45,2 -1.35,30.7 -3,61.39 -4.38,92.09 -0.73,8.79 -0.43,17.66 -1.56,26.42 4.7015,-2.27106 10.0002,-2.99902 15.14,-2.08 3.9067,-37.666666 7.7533,-75.333333 11.54,-113 7.15,1.89 14.21,4.0899997 21.35,6.05 -5.7,39.46 -11.81,78.87 -17.64,118.31 4.72,-0.52 9.54,-1.08 14.21,0.2 7.26,-37.15 14.53,-74.3 22,-111.4 7.2,3.7 14.34,7.53 21.47,11.37 -8.3,33.68 -16.6333,67.346667 -25,101 -0.79,3.36 -1.93,6.65 -2.25,10.1 l 0.8,1.27 c 3.35,1.64 7,2.61 10.21,4.61 10.76,-36 21.37,-72 32.35,-107.84 6,4.44 11.83,9 17.85,13.4 -18,53.09 -36.5,106 -54.6,159.05 -0.66,2.47 0.2,5 0.41,7.48 0.81,4.54 0.79,9.2 1.68,13.73 l 1.16,0.91 c 2.23,-4 3.61,-8.31 5.34,-12.49 20.66,-51.54 41.3,-103.05333 61.92,-154.54 5.33,5.43 10.42,11.1 15.76,16.52 -23.53,51.29 -47.38,102.45 -71,153.68 2.18,2.83 5.24,6.42 3.41,10.21 -2.91,4.65 -8.62,7 -11,12 -1.31,3.66 -0.07,7.56 1,11.13 0.94,-1.47 1.87,-2.95 2.71,-4.48 28.7933,-55.68 57.6033,-111.37333 86.43,-167.079999 4.4,6.649999 8.11,13.729999 12.39,20.459999 -31.3333,54.08667 -62.7567,108.11667 -94.27,162.09 1.75,1.39 3.24,3.4 5.49,4 1.53,0.34 2.37,-1.12 3.14,-2.14 31.46,-48.38 62.9833,-96.71333 94.57,-145 2.5,6.89 5.58,13.69 7.25,20.82 -2.41,4.13 -5.54,7.79 -8.23,11.74 -28,38.98 -56.02,77.98 -84.06,117 -2.87,4 -7,8.07 -5.6,13.48 0.19,3.06 4.14,2.34 5.27,0.27 32.76,-41.37 65.07,-83.12 98,-124.33 1.43,8.06 2.95,16.12 4.41,24.18 -39.82,45.70667 -79.6633,91.39 -119.53,137.05 -1,1.48 -3.21,3.64 -1.13,5.24 1.5,0.25 3.19,0.26 4.2,-1.1 38.9267,-39.88 77.8467,-79.78 116.76,-119.7 v 18.35 c -0.18,1.37 0.29,3.11 -0.87,4.15 -36.8533,34.81333 -73.7233,69.61333 -110.61,104.4 -3,4.68 -8,7.3 -11.61,11.37 -14,13.65333 -27.91,27.37333 -41.73,41.16 1.49,0 3,-0.07 4.51,-0.08 39.3333,-34.78 78.7367,-69.47 118.21,-104.07 13.2,-11.43 26,-23.31 39.49,-34.44 -1.24,7.15 -2.61,14.29 -4,21.43 -0.52,3.18 -3.85,4.56 -6,6.54 -46.39,36.85 -93.12,73.47 -139.45,110.63 1.79,-0.3 3.85,0.17 5.49,-0.8 44.43,-31.82 88.49,-64.21 133.06,-95.83 -1.89,5.32 -4.18,10.49 -6.18,15.78 -1,2.24 -1.62,4.91 -3.89,6.24 -22.6267,14.96667 -45.2933,29.90667 -68,44.82 -14.88,10 -30.08,19.5 -44.79,29.74 1.7577,-0.16314 3.4614,-0.69468 5,-1.56 18.37,-11 37,-21.6 55.38,-32.52 15.14,-8.58 29.88,-17.89 45.19,-26.17 -7.57,14.21 -17.67,27 -28.76,38.59 -3.34,3.66 -7.52,6.5 -10.61,10.39 2,3.69 5.91,5.77 8.16,9.17 0.4,20 0.05,40 0.17,60 h -328.33 c 0,-19 -0.11,-37.94 0,-56.92 2.64,-2.42 5.23,-4.91 7.83,-7.38 -11.6954,-10.75052 -22.5535,-22.37759 -32.48,-34.78 -3.7235,-4.68888 -7.0453,-9.68322 -9.93,-14.93 35.59,18.15 71,36.78 106.46,55.1 1.2958,0.50113 2.6347,0.88272 4,1.14 -4.41,-3.37 -9.37,-5.92 -14,-8.89 -34.2533,-20.76 -68.4833,-41.54333 -102.69,-62.35 -1.535,-0.77831 -2.764,-2.04962 -3.49,-3.61 -2.64,-5.79 -5.22,-11.62 -7.69,-17.49 18.93,12 37.46,24.7 56.27,36.92 27.07,18 54.28,35.74 81.32,53.75 1.5658,0.96817 3.3435,1.54129 5.18,1.67 -4.11,-3.61 -8.7,-6.6 -13.06,-9.89 l -136.12,-99.62 c -2.15,-8.31 -4.45,-16.61 -5.81,-25.1 54.2067,44.36 108.3233,88.84333 162.35,133.45 1.58,1.28 3.79,0.78 5.66,1.1 -36.84,-34.13 -74,-67.9 -111,-101.89 -19.85,-18.11 -39.53,-36.46 -59.53,-54.4 0,-6.87 -0.13,-13.74 0.11,-20.6 8.61,7.88 16.5,16.5 24.9,24.6 50.66,50.74 101.3433,101.46333 152.05,152.17 l 2.8,-0.12 c -49.06,-53.54667 -98.1167,-107.09333 -147.17,-160.64 -10.41,-11.55 -21.17,-22.81 -31.41,-34.49 0.84,-8.43 2.6,-16.8 4.16,-25.13 59.8467,73.44 119.7,146.88 179.56,220.32 h 3.42 c -59.6933,-79.65333 -119.46,-159.26333 -179.3,-238.83 2.74,-7 5.36,-14 8,-21 20.16,29.12 39.7,58.68 59.62,88 38.7,57.33333 77.4,114.64333 116.1,171.93 l 3,-0.07 c -56.98,-92.68667 -113.9867,-185.36333 -171.02,-278.03 4.37,-7.3 8.72,-14.62 13.13,-21.9 31.82,58.06667 63.56,116.18667 95.22,174.36 2.1198,-1.80615 4.5173,-3.25817 7.1,-4.3 -8.17,-15.83 -15.77,-32 -23.76,-47.89 -2.93,-1.13 -6.1,-2.16 -8.22,-4.62 -2.28,-2.31 -2.87,-5.6 -3.54,-8.63 -0.78,-3.82 -4,-6.46 -5.23,-10.09 -0.47,-4.83 2,-10.18 -1.1,-14.54 -16.68,-32.93 -32.84,-66.13 -49.24,-99.2 5.1,-5.86 9.84,-12 15.12,-17.74 4.2933,9.96 8.57,19.923334 12.83,29.890001 1.36,-2.760001 2.66,-6.140001 5.79,-7.300001 2.17,-0.37 5,-0.58 6.48,1.42 3.63,4.39 6.7,9.21 10.28,13.64 -6.79,-17.39 -13.43,-34.83 -20.19,-52.22 6,-4.71 11.93,-9.53 18,-14.17 7.31,21.33 14.69,42.63 21.85,64 0.9126,-2.38004 2.0511,-4.66716 3.4,-6.83 1.84,-2.41 4.95,-3.14 7.62,-4.24 -5.69,-21 -11.32,-42 -17.05,-62.92 7.44,-3.85 14.86,-7.76 22.41,-11.41 5.02,25.18 9.99,50.37 14.91,75.57 0.68,4.830001 5.86,8 5.4,13.13 0,2.56 -2.47,4 -4.05,5.65 l -3.22,-1.31 c 0.71,6.47 0.72,13 1.39,19.45 1.68,4.06 6.88,4.39 10.66,5 5.4997,0.51282 10.6887,2.78121 14.8,6.47 2.78,2.2 5,5.21 8.37,6.63 2,-0.53 3.93,-1.5 6,-1.93 2.51,0.46 4.66,1.95 6.92,3 5,-1.29 9.65,-3.59 14.38,-5.65 2.94,-1.57 3.81,2.57 5.17,4.26 0.85,-1.08 2.24,-2.05 1.9,-3.63 -0.17,-6.44 -2.57,-12.62 -2.32,-19.1 -0.1498,-6.00995 0.6915,-12.00352 2.49,-17.74 -2.46,0.9 -5.53,4.71 -8.06,2.28 -3.7231,-4.55315 -5.7298,-10.26876 -5.67,-16.15 -1.83,-0.24 -3.66,-0.48 -5.49,-0.7 4.86,-7.39 1.95,-16.43 1.27,-24.53 -1.63,-22.82 -3.11,-45.65 -4.73,-68.46 6.19,-0.47 12.37,-1 18.54,-1.65 m -132.21,100.95 c -1.22,7.3 0.86,14.55 2.12,21.7 0.81,5.4 4.63,9.64 6.14,14.82 2.34,5.5 1.82,11.9 5.14,17 2.65,4.53 6.48,8.15 9.92,12 2.08,2.31 2.17,5.65 2.15,8.59 0,7.93 -3.47,15.25 -4.55,23 -0.94,5.6 5.86,7.93 6.06,13.17 0.37,1.9 0.71,4 2.36,5.29 3.19,2.71 7.66,2.47 11.42,3.85 5.33,1.8 10.95,4.81 13.34,10.18 0.6,3.76 -0.32,7.64 0.47,11.37 1.21,2.39 2.84,4.58 3.67,7.17 1.49,4.48 0.81,9.29 1.8,13.86 0.53,1.85 1.45,4.22 3.69,4.41 4.39,-1.38 4.95,-8.14 10,-8.28 3.09,-0.4 2.59,4.06 5.13,4.8 3.89,1.05 8.59,0.17 11.66,3.3 2,1.69 2.48,4.41 3.16,6.82 2.5984,9.87015 7.7074,18.89966 14.83,26.21 2.24,2.49 5.74,2.91 8.57,4.47 3.72,1.7 6.38,5.32 10.61,6 8.86,2.32 15.26,11.76 25.1,10.45 8.3,-2.46 14.81,-9.89 23.87,-10 4.0343,-0.21282 7.9166,1.56579 10.39,4.76 4.31,4.76 5.57,11.45 9.78,16.25 1.41,1.79 3.72,2 5.84,1.94 10.43,-0.12 20.71,1.92 30.95,3.71 5,0.75 9.39,3.36 14.32,4.32 2.62,-8.75 2.35,-18.79 8.62,-26.07 3.59,-4.77 9.63,-6.44 15.33,-6.75 -2.86,-1.19 -6.46,-1.32 -8.49,-3.9 -2.34,-4.69 1,-11.47 -3.62,-15.13 -4.32,-2.94 -9,-5.51 -12.41,-9.57 -6.26,-6.5 -8,-16.31 -6,-24.86 2.72,-4.35 8.4,-5.62 11.3,-9.82 1.07,-1.7 0.85,-4.66 -1.28,-5.41 -4.65,-1.88 -10.63,0.16 -14.54,-3.53 -3.82,-4.81 -1.42,-11.33 -2.81,-16.85 -1,-4 -0.45,-8.08 -0.32,-12.12 -0.17,-4.92 -6.65,-6.84 -6.15,-12 0,-9.56 9.88,-15 11.7,-24 0.07,-2.66 -1.08,-5.18 -1.24,-7.83 -0.55,-3.75 0.52,-7.42 1.46,-11 0.79,-1.91 -0.81,-3.71 -2.47,-4.4 -3.75,-1.84 -7.91,-3.34 -10.3,-7 -1.52,-0.08 -3.09,0.19 -4.56,-0.24 -2.92,-2.14 -5.25,-5.1 -8.55,-6.72 -4.49,-0.49 -9.09,1.28 -13.53,-0.13 -6.63,-2 -11.48,-7.19 -16,-12.15 -2.74,0.08 -5.47,0.08 -8.2,0.13 -5.0644,4.05574 -12.066,4.68221 -17.77,1.59 -4.3091,5.10206 -8.8855,9.97222 -13.71,14.59 -1.28,1.52 -3.33,1 -5.06,1.1 1,2.51 1.78,5.28 1,8 -1.8428,3.1687 -4.5807,5.72227 -7.87,7.34 -1.1503,-1.38406 -2.1965,-2.8514 -3.13,-4.39 -5.19,-0.36 -9.76,2.48 -14.74,3.35 -2.39,0.74 -4.59,-0.77 -6.88,-1.2 -3.46,0.7 -7.53,2.18 -10.54,-0.54 -4.3,-4 -8.54,-8.82 -14.69,-9.73 -6.07,-1.07 -12.95,-2.11 -17.16,-7.12 -3.54,-4.19 -0.31,-10 -2.51,-14.72 -3.54,-0.34 -8.44,1.36 -10.78,-2.22 -1.75,-5.75 0.28,-11.86 -0.61,-17.73 -0.13,-1.229999 -1,-3.57 -2.69,-2.379999 -4.55,1 -5.68,5.999999 -9,8.619999 -4.3562,3.65799 -9.5172,6.23163 -15.06,7.51 -3.16,0.66 -7.29,0.44 -9.12,-2.66 -3.7,-5.79 -6.79,-12.609999 -13.15,-16 -1.2966,1.340422 -2.1665,3.035181 -2.5,4.87 m 72.92,163.74 c -1.72,3.25 -3.94,6.71 -8,7.06 -0.27,1.43 0.13,4 -2,4.08 -3,0.25 -6.85,0.95 -7.8,4.37 0.35,3.95 4.4,6.07 5.28,9.8 0.46,2.16 0.86,4.47 2.59,6 7.1,7.59 16.53,12.39 25.57,17.26 0.37,5.83 4.64,10.25 5.91,15.79 0.82,2.55 -1.78,4.49 -1.65,7 0.61,1.85 2.49,2.86 3.84,4.15 0.4041,2.69028 1.2666,5.29132 2.55,7.69 -0.26,-3.08 -0.13,-6.91 2.87,-8.68 2.84,-0.6 5,1.91 6.89,3.61 2.21,2.41 5,4.73 5.79,8 -1,2.18 -2.46,4.11 -3.68,6.18 11.6,-1.18 23.26,-0.84 34.89,-0.66 4.508,-3.22105 8.4228,-7.2001 11.57,-11.76 1.41,-2.6 4.6,-1.93 7.06,-2.42 0.2,-4.87 4.92,-7.58 5.85,-12.17 0.6427,-2.97915 2.6401,-5.48707 5.4,-6.78 2,-0.74 3.72,0.64 5.36,1.54 v 16.28 c 0.13,1.88 -0.75,3.59 -1.43,5.28 2.89,2.63 6.86,3.49 9.89,5.93 1.86,1.28 3.6,3.27 6.11,2.8 19.34,-0.62 38.69,-0.17 58,-0.79 3.934,0.79456 7.3407,-2.80595 6.33,-6.69 -3.79,-0.11 -7.8,0.54 -11.29,-1.31 -3.22,-1.65 -7,-0.94 -10.31,-2 -11.52,-5.12 -24.43,-4.08 -36.68,-5.12 -6.33,-0.38 -10.34,-6 -12.93,-11.19 -2.37,-4.55 -4.29,-10.75 -10.07,-11.83 -6.84,0 -12.88,3.78 -18.37,7.46 -6.1,2.89 -13.44,2.63 -19.64,0.18 -3.7,-2.55 -6.55,-6.55 -11,-7.87 -2.37,-0.6 -5.41,0.44 -7,-1.89 -4.21,-4.58 -10.12,-6.76 -15.53,-9.49 -4.232,-3.8025 -7.8483,-8.2386 -10.72,-13.15 -4.1,-6.64 -6.16,-14.23 -8.84,-21.5 -2.9,-0.67 -5.9,-0.56 -8.82,-1.06 -2.51,-0.46 -4.28,-2.42 -6,-4.14 m -6,41.1 c 16.08,30.34 32.13,60.69333 48.15,91.06 1.38,2.17 2,5.83 5.33,5.41 -14.09,-30.1 -28.48,-60.07 -42.76,-90.09 -2.8,-3.08 -7.16,-4.29 -10.72,-6.38 m 103.42,35.26 c -2.83,20.52 -5.9,41 -8.65,61.54 l 1.67,-1.06 c 4.58,-24.43 8.91,-48.93 13.34,-73.4 -3.6368,3.37795 -5.9011,7.97773 -6.36,12.92 m -66.69,2.42 c -1.1896,3.96221 -0.92,8.21953 0.76,12 6.38,15 12.6,30 18.93,45 0.3712,1.14889 1.4529,1.91751 2.66,1.89 -4.73,-13.59 -9.5,-27.18 -14.47,-40.69 -2.1299,-0.71471 -3.8401,-2.32623 -4.68,-4.41 0.69,-2.36 1.44,-4.82 1.1,-7.31 -0.52,-2.65 -2.52,-4.63 -4.3,-6.52 m 54.33,6.48 c -0.88,17.41 -1.71,34.82 -2.78,52.21 l 2.65,-0.14 c 1.21,-18.58 3.41,-37.09 4.52,-55.68 -1.81,0.6 -4.64,1.11 -4.39,3.61 m 22,1.93 c -4.2,16.91 -8.89,33.7 -12.76,50.68 l 2.08,-1.06 c 4.75,-15.8 9.09,-31.75 13.84,-47.56 l -3.21,-2.05 m 8.43,6 c -5,14.81 -10.33,29.51 -15.48,44.27 l 2.57,-0.13 c 5.06,-14 10.18,-27.91 15.51,-41.77 -0.87,-0.8 -1.73,-1.59 -2.6,-2.37 m -41.53,3.13 c 0.06,13.66 0.39,27.34 0.24,41 l 4.12,0.15 c 0.06,-14.69 -0.12,-29.38 0.09,-44.07 -1.48,1 -3,1.84 -4.45,2.91 m 62.1,-1.79 c -8.36,14.32 -16.77,28.63 -24.86,43.12 l 2.64,-0.45 c 9.21,-14 17.71,-28.48 26.7,-42.63 h -4.48 m 11,0 c -9.79,14.22 -19.31,28.62 -29.09,42.85 1.26,0 2.52,0 3.79,0.07 10.77,-14.37 21.76,-28.57 32.56,-42.93 h -7.26 m -19.77,42.84 h 3.51 l 40.55,-43.29 c -2.48,-0.09 -5,-0.09 -7.44,-0.16 -12.3,14.42 -24.5067,28.90333 -36.62,43.45 m -3.05,-42 c -6.3,14 -12.74,28 -19.11,42 h 2.64 c 7.09,-14.07 14.16,-28.15 21.43,-42.13 -1.66,0 -3.31,0.09 -5,0.15 m -70.32,0.85 c 2.92,12.67 5.48,25.43 8.14,38.17 0.42,1.35 0.38,3.41 2.45,3.41 -1.87,-13.91 -4.48,-27.71 -6.62,-41.57 h -4 m 9.87,0.05 c 1.47,13.71 2.72,27.43 4.21,41.14 h 2.31 c -0.55,-13.7 -1.82,-27.36 -2.44,-41.05 l -4.08,-0.1 m -19.1,1 c 3.9,13.32 8,26.59 11.66,40 l 2.66,0.27 c -3.66,-13.41 -7.26,-26.84 -10.94,-40.24 h -3.38 m -125.4,47.31 c 0.07,14.61 0.1,29.21 0,43.82 104.82,0.18 209.64,0.2 314.46,0.06 -0.08,-14.63 -0.05,-29.27 0,-43.9 h -314.42 M 1304.0346,13 c 6.79,-2.16 13.49,-4.6 20.31,-6.67 3.6,28.39 7.3,56.76 10.7,85.17 -6.13,-0.05 -12.25,0.08 -18.37,-0.1 -4.25,-26.13 -8.53,-52.25 -12.64,-78.4 m 37.72,164.28 c 9.05,-9.11 22.16,-13.32 34.82,-13.1 18.31,-0.08 36,9.35 47.18,23.69 4.07,5.08 7.45,10.87 8.81,17.3 2.69,12.11 2.08,24.63 1.61,36.94 -0.07,2.4 -0.15,5 1.38,7.05 4,5.91 10.71,9.15 17,12.16 -2.65,4.68 -5.53,9.23 -8.26,13.87 -5.37,-2.2 -10.7,-4.86 -14.9,-8.93 -6.006,-6.38245 -9.854,-14.49123 -11,-23.18 -1.56,-1.13 -3.11,-2.25 -4.65,-3.39 1.5886,-3.60764 2.6883,-7.41125 3.27,-11.31 1.89,-0.3 3.76,-0.74 5.65,-1 0.362,-6.66101 -0.3711,-13.3363 -2.17,-19.76 l -5.11,1.8 c -1.4375,-4.09265 -3.5836,-7.90063 -6.34,-11.25 l 3,-3.12 c -4.1636,-5.48091 -9.4173,-10.04 -15.43,-13.39 -1.14,1.5 -2.26,3 -3.41,4.51 -3.21,-1.46 -6.71,-1.9 -10.08,-2.79 -0.3096,-1.78277 -0.5099,-3.58279 -0.6,-5.39 -6.67,-0.17 -13.41,-0.37 -20,1 0.19,2.12 0.44,4.23 0.69,6.35 -3.74,2 -7.57,3.89 -11.4,5.76 -3.35,-4.63 -6.93,-9.09 -10.13,-13.83 m -41.12,7.46 c 2.53,-4.79 5.19,-9.5 7.94,-14.16 6,1.93 11.15,5.8 16.07,9.66 6.77,5.75 9,15.11 8.79,23.67 l 4.73,2.31 c -1,3.85 -1.75,7.77 -2.5,11.69 h -5.22 c -0.6026,7.15793 0.1402,14.36542 2.19,21.25 1.64,-0.46 3.2833,-0.91 4.93,-1.35 1.6615,3.34706 3.7232,6.47999 6.14,9.33 -1.56,1.28 -3.1033,2.57667 -4.63,3.89 3.9909,5.85606 9.5302,10.48829 16,13.38 l 3.25,-4 c 3.38,1.26 6.79,2.45 10.18,3.68 0.18,1.8 0.38,3.59 0.6,5.38 6.9474,0.95606 14.0165,0.49341 20.78,-1.36 -0.45,-1.89 -0.78,-3.81 -1.24,-5.7 3.91,-1.65 7.76,-3.43 11.67,-5.1 3,4.43 6,8.89 9.23,13.16 -13.2955,9.46858 -30.0443,12.70454 -45.91,8.87 -11.7664,-2.79744 -22.5657,-8.70306 -31.27,-17.1 -11.15,-12 -14.3,-29.27 -13.88,-45.17 -0.19,-6.74 1.35,-14 -1.62,-20.29 -3.9,-5.68 -10.37,-8.8 -16.24,-12 m 65,-1.28 c 4.38,-0.14667 8.7633,-0.23333 13.15,-0.26 0,1.78 0.08,3.56 0.11,5.34 4.567,0.68087 9.051,1.83371 13.38,3.44 1.11,-1.39 2.22,-2.79 3.34,-4.17 3.691,2.25947 7.1686,4.85016 10.39,7.74 -1.3867,1.33333 -2.78,2.63 -4.18,3.89 4.2426,3.82178 7.2914,8.78733 8.78,14.3 1.8867,-0.20667 3.7833,-0.38667 5.69,-0.54 0.27,4.21 0.32,8.43 0.27,12.65 l -4.73,0.49 c -0.3843,5.06347 -1.6182,10.02614 -3.65,14.68 1.3,1 2.6,1.94 3.89,2.93 -3.09,3.12 -6,6.45 -9.16,9.46 l -3.07,-3.08 c -3.988,3.8647 -8.8642,6.69081 -14.2,8.23 l 1,3.87 c -4.33,1.43 -8.93,1.27 -13.39,0.66 0,-0.77 0.05,-2.3 0.07,-3.07 -5.4757,-0.91454 -10.7263,-2.86615 -15.47,-5.75 -0.78,1.19 -1.56,2.39 -2.35,3.58 -3.3132,-2.24243 -6.401,-4.80108 -9.22,-7.64 0.92,-1.25 1.82,-2.52 2.74,-3.77 -3.51,-3.68 -5.41,-8.4 -7.1,-13.1 -1.59,-1 -3.86,-0.26 -5.68,-0.53 -0.04,-4 -0.04,-8 0,-12 1.68,-0.06 3.36,-0.09 5,-0.13 0.3371,-4.66759 1.7031,-9.20272 4,-13.28 -1.38,-1.43 -2.72,-2.9 -4.09,-4.32 2.4666,-3.30936 5.2352,-6.38255 8.27,-9.18 1.63,0.77 3.29,1.5 4.94,2.26 3.4,-3.24 7.73,-5.15 12,-7.05 -0.34,-1.88 -0.58,-3.77 -0.79,-5.65 m 10.73,16 c -0.3,1.61 -0.62,3.22 -0.94,4.83 -1.7,-0.95 -3.42,-1.85 -5.15,-2.73 0.7113,2.49628 2.3933,4.60337 4.67,5.85 0,2.67 -0.08,5.34 -0.25,8 -3.35,-1.24 -6,-3.73 -8.95,-5.57 0.06,5.15 4.33,8.43 8.42,10.7 0,2.27 0,4.55 0.05,6.82 -4.34,-1.19 -8,-3.85 -11.56,-6.49 0.31,3 0.57,6.28 2.52,8.76 2,2.81 5.15,4.44 8.18,5.93 0.07,2.2 0.09,4.42 0.06,6.63 -6.1,-1.54 -10.54,-6.22 -15.07,-10.25 1,6 3.87,11.92 8.9,15.53 4,2.77 9.39,4.2 14.09,2.29 7.71,-2.42 12.29,-10.22 13.51,-17.83 -4.52,4 -9,8.63 -15,10.28 -0.08,-2.22 -0.08,-4.44 0,-6.65 3.05,-1.51 6.24,-3.11 8.25,-6 1.91,-2.51 2.22,-5.77 2.57,-8.79 -3.61,2.65 -7.31,5.34 -11.69,6.55 0.05,-2.29 0.12,-4.58 0.18,-6.86 4.05,-2.3 8.27,-5.55 8.38,-10.66 -3.05,1.79 -5.65,4.32 -9,5.55 -0.18,-2.67 -0.26,-5.35 -0.19,-8 2.2886,-1.25159 3.9679,-3.38229 4.65,-5.9 -1.74,0.92 -3.48,1.83 -5.2,2.8 -0.3,-1.6 -0.58,-3.2 -0.84,-4.8 h -0.51 m 134.2,217.62 c 0,-1.42 1.55,-2.09 2.31,-3.1 l 2.65,2.7 c -0.83,0.93 -1.67,1.84 -2.48,2.79 -0.85,-0.78 -1.72,-1.54 -2.48,-2.39 m -42.59,-2.17 c 1.21,0.77 2.42,1.58 3.62,2.39 l 2.08,-2.87 c 0.88,1.16 2.73,1.93 2.84,3.53 -0.8892,0.99583 -1.8305,1.94382 -2.82,2.84 l -2.07,-2.95 -3.38,2.56 c -1,-0.94 -1.9,-1.89 -2.84,-2.83 l 2.61,-2.71 m 34.12,5.08 c 1.06,-1 2.13,-2 3.23,-3 0.3383,5.42718 0.3717,10.86908 0.1,16.3 3,1.51 6.42,1.38 9.68,0.89 -1.0673,-1.40537 -2.223,-2.74141 -3.46,-4 0.91,-1.77 1.9,-3.49 2.9,-5.2 2.43,3.42 3.83,8.12 1.79,12.06 -1.1327,2.73453 -3.8875,4.43812 -6.84,4.23 -2.81,0.56 -4.05,-2.39 -5.43,-4.2 -2.05,5.15 -8.05,4.15 -12.49,4.18 -3.09,-0.08 -7.65,0.59 -8.8,-3.22 -0.42,-3 -1.28,-7 1.31,-9.2 0.6,1.83 0.12,4.78 2.53,5.41 5,0.61 10.06,0.27 15.08,0.05 0.62,-4.72 1.35,-9.53 0.4,-14.25 m -12.36,4.08 c 0.19,-3 3.37,-4.29 5.76,-5.3 0.083,1.58331 -0.6019,3.10964 -1.84,4.1 0.74,1 2.71,1.62 2.21,3.2 0.09,2.63 -2.64,3.79 -4.78,4.22 0.49,-1.28 1,-2.54 1.54,-3.8 -1.038,-0.71302 -2.0057,-1.52335 -2.89,-2.42 m -198.33,-3.89 c 3.53,0.1 7.2,-0.52 10.64,0.46 4.27,2.07 4.17,8 1.54,11.37 1.9,3.33 1.21,7.23 1.86,10.86 h -4.12 c -0.52,-2.8 -0.1,-5.78 -1.17,-8.45 -1.6,-0.25 -3.22,-0.26 -4.83,-0.35 0,2.9 0,5.81 -0.06,8.72 -1.28,0 -2.56,0 -3.83,0.08 -0.08,-7.57 0,-15.13 0,-22.7 m 3.88,4.39 v 5.49 c 2.34,-0.17 6.55,0.55 6.26,-3.06 -0.31,-3.27 -4.06,-2.12 -6.3,-2.43 m 18.9,-3.88 c 1.2836,-0.17489 2.5753,-0.28503 3.87,-0.33 2,7.34 3.66,14.77 5.56,22.14 h -4 c -0.36,-1.5 -0.7,-3 -1.06,-4.46 h -5 c -0.34,1.47 -0.69,2.95 -1,4.43 l -3.84,0.17 c 1.72,-7.33 3.41,-14.68 5.45,-21.92 m 1.83,6.25 c -0.5,2.38 -1,4.77 -1.53,7.14 l 3.23,-0.12 c -0.55,-2.35 -1.09,-4.69 -1.7,-7 m 7.72,-6.44 c 4.41,-0.07 8.81,-0.12 13.22,0.07 -0.09,1.41 -0.18,2.82 -0.28,4.24 -1.51,0 -3,0 -4.53,-0.05 0,6 0.19,11.95 -0.14,17.92 l -3.61,-0.24 c 0,-5.88 -0.09,-11.75 0.07,-17.63 l -4.71,-0.09 v -4.22 m 67.88,-0.29 c 1.21,0.06 2.42,0.09 3.64,0.11 0,2.63 0,5.26 0.1,7.89 1.84,-2.62 3.54,-5.34 5.29,-8 l 4.36,0.1 c -1.89,3.27 -4.12,6.34 -6.09,9.57 2.24,4.29 4.35,8.65 6.51,13 h -4.61 c -1.66,-3.14 -2.65,-6.74 -5.21,-9.31 -0.3083,3.06973 -0.4219,6.15591 -0.34,9.24 -1.23,0 -2.45,0.05 -3.67,0.11 -0.06,-7.58 -0.08,-15.15 0,-22.73 m 51.07,3 c 1.23,-1.15 2.47,-2.27 3.75,-3.36 0.45,4.63 0,9.31 0.61,13.92 3.81,1.48 8.53,0.83 12.5,-0.17 -2.27,-2.07 -5.13,-1.74 -7.37,0.26 0.42,-2.6 0.32,-6.24 3.32,-7.33 3.6461,0.67456 7.2464,1.57632 10.78,2.7 -0.37,1.52 -0.74,3 -1.1,4.55 -0.41,0.23 -1.24,0.67 -1.66,0.89 2.77,-0.17 5.55,-0.23 8.31,-0.55 -1.08,-1.4 -2.23,-2.73 -3.41,-4 0.85,-1.68 1.73,-3.33 2.63,-5 3.66,3.67 4.16,10.14 0.6,14.05 -3.56,3.91 -11.17,2.2 -11.49,-3.41 -2.15,2.22 -4.15,5.49 -7.65,5.38 -2.91,0 -7,0.69 -8.51,-2.55 -1.33,-5 -1,-10.25 -1.31,-15.37 m 76.84,-0.09 c 1.23,-1.14 2.46,-2.26 3.75,-3.33 0.43,4.45 -0.18,8.95 0.5,13.37 0.28,1.84 2.44,1.11 3.73,1.33 1.8117,-0.017 3.6211,-0.13383 5.42,-0.35 -1.0718,-1.40759 -2.2343,-2.74376 -3.48,-4 0.94,-1.76 1.94,-3.48667 3,-5.18 3.53,4.56 4.07,12.39 -1.49,15.58 -3.29,1.08 -8.82,1.63 -10.3,-2.41 -1.23,-4.88 -0.63,-10 -1.12,-15 m -291,-1.83 h 12.84 l 0.27,4.36 -4.8,0.16 c 0.04,5.82667 0.04,11.66333 0,17.51 h -3.84 c -0.09,-5.86 0,-11.72 -0.06,-17.58 l -4.31,0.11 c 0,-1.51 -0.06,-3 -0.1,-4.53 m 16.44,0.06 c 4.12,-0.11 8.24,-0.1 12.36,-0.05 l 0.18,4.34 c -2.9,0.14 -5.81,0.15 -8.71,0.11 v 4 h 7.86 V 434 c -2.57,0 -5.16,-0.06 -7.73,0.16 -0.12,1.59 -0.12,3.2 -0.14,4.81 h 9 v 4.35 c -4.29,0 -8.57,0.11 -12.85,-0.15 0.08,-7.26 0,-14.51 0.05,-21.76 m 21.41,17.51 c 1.05,-6 0,-12.13 0.58,-18.17 l 3.86,0.19 c -0.11,6.09 0.46,12.24 -0.29,18.31 -0.56,4 -6.12,5.53 -9,2.89 -2,-2.09 -1.79,-5.19 -2.1,-7.84 l 3.82,-0.09 c 0.08,1.79 0.13,6.5 3.09,4.71 m 13,-17.59 h 3.84 c 1.95,7.3 3.75,14.65 5.45,22 -1.29,0 -2.58,-0.05 -3.86,-0.05 -0.35,-1.41 -0.71,-2.82 -1.07,-4.22 h -5 c -0.35,1.41 -0.7,2.82 -1.06,4.23 h -3.8 c 1.86,-7.35 3.57,-14.74 5.53,-22 m 1.8,6.76 c -0.52,2.18 -1,4.39 -1.48,6.59 l 3,0.13 c -0.3601,-2.2681 -0.8577,-4.51224 -1.49,-6.72 m 62.51,-7 c 3.22,0 6.52,-0.44 9.68,0.38 3.7,1.9 3.09,6.64 1.86,9.9 1.93,3.63 2.35,9.39 -1.93,11.52 -3.18,0.52 -6.43,0.2 -9.63,0.2 v -22 m 3.71,8.29 c 1.778,0.22827 3.5796,0.20133 5.35,-0.08 -0.43,-1.2 0.27,-3.18 -1.15,-3.79 -1.3756,-0.21981 -2.774,-0.26014 -4.16,-0.12 -0.1257,1.33037 -0.1257,2.66963 0,4 m -0.05,4.47 v 5.24 c 1.7,-0.15 3.49,0.1 5.1,-0.59 0.82,-1.4 0.47,-3 0.22,-4.48 -1.78,-0.07 -3.56,-0.12 -5.34,-0.17 m 16.51,-12.72 4.19,0.18 c 1.53,7.31 3.56,14.49 5.19,21.77 h -3.94 c -0.31,-1.42 -0.63,-2.85 -0.94,-4.25 h -5.06 c -0.36,1.41 -0.71,2.81 -1.05,4.23 h -3.82 c 1.77,-7.32 3.61,-14.62 5.43,-21.93 m 2.09,6.65 c -0.64,2.18 -1.19,4.38 -1.76,6.59 1.07,0.06 2.14,0.17 3.2,0.32 -0.5,-2.3 -0.94,-4.61 -1.44,-6.91 m 8.84,-6.48 c 1.3,-0.07 2.6,-0.16 3.9,-0.26 2,4.37 3.69,8.84 5.51,13.28 0.54,-4.39 0.27,-8.82 0.37,-13.22 1.17,0.08 2.35,0.15 3.53,0.21 -0.08,7.2 0,14.41 0,21.62 -1.17,0 -2.34,0 -3.5,-0.06 -2.47,-4.37 -3.85,-9.25 -6.06,-13.75 -0.17,4.62 0,9.25 -0.15,13.87 -1.18,-0.08 -2.36,-0.13 -3.54,-0.15 v -21.54 m 38.72,2.89 c 1,-0.95 2,-1.89 2.95,-2.82 0.91,0.82 1.82,1.63 2.74,2.47 0.94,-0.81 1.89,-1.59 2.85,-2.37 0.72,1.06 2.35,1.82 2.31,3.24 -0.83,0.92 -1.74,1.76 -2.64,2.61 -0.8467,-0.94 -1.6967,-1.87 -2.55,-2.79 -0.92,0.89 -1.83,1.8 -2.74,2.7 -1,-1 -2,-2 -2.92,-3 m 13.47,3.08 c 4.75,2.75 3.12,10.72 -1.72,12.66 -4.5,1.84 -9.73,1.55 -14.42,0.69 -4.33,-2.29 -3.47,-8.22 -2.17,-12.11 2.2,1.24 0.87,4.92 3.72,5.43 4.84,1.07 9.83,0.19 14.73,0.06 -0.83,-0.94 -1.63,-1.89 -2.42,-2.85 0.73,-1.32 1.44,-2.64 2.28,-3.88 m 10,3 c 1.49,0 1.64,1.77 2.19,2.82 1.49,4.47 2.23,9.94 -0.55,14.06 -2.3,2.82 -6.33,1.39 -9.16,0.35 3,-2.64 6.2,-5 8.74,-8.13 -1.23,-1.43 -2.41,-2.89 -3.67,-4.28 0.79,-1.63 1.51,-3.28 2.45,-4.82 m 18.42,17.16 3.08,-2.93 c 1,1 2.06,2.07 3.09,3.12 l -3.1,2.92 -3.07,-3.11 m 72.29,-2.24 3,2.63 c -1,0.94 -2,1.88 -3,2.84 -0.77,-0.87 -1.52,-1.75 -2.22,-2.65 0.6938,-0.9835 1.4451,-1.92514 2.25,-2.82 M 406.06185,110.81564 h 54.31382 c -0.13483,36.67363 0,73.34726 0,110.11077 0,7.19091 0.58426,15.52787 6.74148,20.22443 3.61792,3.86512 8.98863,4.02242 13.97732,3.93253 35.12309,-0.11236 70.24618,0 105.39175,0 7.10382,0.17258 13.51748,-4.23012 15.90987,-10.92119 1.55054,-4.71903 1.16853,-9.75267 1.39324,-14.60653 H 495.74595 v -54.78573 c 48.33638,0 96.62782,-0.60673 145.03161,0.17977 v 62.65079 c -0.44817,9.87794 7.69603,18.00129 17.57278,17.52783 H 775.2026 c 3.14602,0.38202 7.57292,-1.21346 9.37065,2.40446 0.42696,17.57278 0,35.16804 0.13483,52.74082 -32.29167,0.1573 -64.58334,0 -96.87501,0 -23.19068,-0.31461 -43.70724,-18.71884 -47.79707,-41.34772 -3.955,23.10079 -25.48278,41.70726 -49.05547,41.41513 H 453.90386 c -25.28054,-0.26966 -48.0892,-22.65136 -47.95437,-48.11167 V 110.95047 m -235.14268,17.9548 c 13.73014,-11.37062 36.76351,-7.95494 46.33641,7.21338 8.00765,11.36563 7.55916,26.65096 -1.10111,37.52755 -10.36678,13.44861 -29.39497,16.53639 -43.48252,7.05607 -6.74147,-4.29207 -10.53917,-11.77511 -13.64025,-18.94354 -3.30332,11.50545 -11.95488,21.81991 -24.02213,24.44908 -16.69639,4.71904 -35.168034,-6.74147 -39.055614,-23.57269 -5.19094,-18.83119 10.651534,-39.37022 29.999564,-39.72977 15.46046,-0.9438 29.55014,10.85378 32.87593,25.7075 2.24716,-7.46057 5.55049,-15.05596 12.08972,-19.70758 m 562.48628,19.88735 c 3.25838,-14.11215 15.73011,-26.58388 30.69619,-26.35917 17.2357,-1.52807 33.50513,13.82003 33.3703,31.01079 1.10111,17.97727 -15.57281,34.11187 -33.39278,32.76357 -14.85371,0 -27.28051,-11.97735 -30.42653,-26.06704 -2.96625,20.22443 -26.9659,32.92088 -45.30272,23.79741 -17.59525,-7.64034 -24.17942,-32.04448 -12.78633,-47.45999 16.21628,-23.34701 52.5419,-15.61335 57.84187,12.31443 m 76.96518,51.28016 h 54.56102 c 1.30335,39.81965 0,79.70672 0.67414,119.52637 0.92341,8.85187 8.4033,15.56436 17.30312,15.52787 h 81.43703 v 54.98797 c -26.3367,0 -52.67339,0.11236 -78.98762,0 -22.78619,-0.60673 -43.66229,-18.71883 -47.19033,-41.32525 -3.75276,13.8425 -11.5504,26.96591 -24.31426,34.33659 -9.55042,5.88755 -20.98846,7.61786 -32.02201,7.10102 -71.34729,-0.1573 -142.67211,0 -213.99692,-0.11236 v -54.98797 h 225.36754 c 9.21335,0.17977 17.73008,-8.33696 16.87616,-17.66267 0.13483,-39.12303 -0.20224,-78.24606 0.1573,-117.34662 m 180.0873,0 c 18.36676,-0.0899 36.73356,-0.0899 55.10036,0 0.2247,39.10056 0,78.17864 0,117.27921 -0.4974,9.75278 7.3823,17.88034 17.1458,17.68513 26.9659,0.20225 53.9318,0 80.8977,0 v 55.01045 c -32.9434,0.1573 -65.8867,0 -98.875,0.13483 -28.2917,2.69659 -55.57221,-21.79744 -54.51605,-50.47119 V 200.07278 M 0.29240581,218.31971 C 99.639286,218.90397 198.98618,218.13994 298.33306,218.65678 v 54.53854 c -82.98008,0.14989 -165.96765,0.14989 -248.962704,0 -28.13443,0 -52.2015002,-27.10073 -49.10042019,-54.92055 m 324.42229419,0 c 18.24693,0.65167 36.49386,0.1573 54.76326,0.4719 0.3146,35.16803 0,70.33607 -0.13483,105.61646 0,24.96593 -22.2244,47.19033 -47.19033,47.75212 -23.48281,0.29213 -46.96562,0 -70.44843,0 0,-18.38176 -0.1573,-36.76352 0.15731,-55.1228 15.32562,-0.11236 30.67371,0.29213 46.0218,-0.11236 9.47943,-0.0951 17.01567,-7.9867 16.67392,-17.46042 0.13483,-26.96591 -0.17977,-54.08911 0.13483,-81.12243 m 592.86787,7.97741 c 17.16829,-7.91 38.92079,3.46063 43.4151,21.50531 6.04486,19.14579 -10.8313,40.6511 -30.69618,40.24661 -15.37574,0.17685 -28.71883,-10.57113 -31.82083,-25.63174 -3.102,-15.06059 4.9078,-30.20649 19.10191,-36.12018 M 481.74615,332.22818 c 16.47167,-7.97741 38.2017,1.3483 43.54994,18.89861 7.46056,19.03343 -8.31449,42.49377 -28.85352,42.26905 -17.23571,1.59548 -33.86468,-13.86497 -33.34784,-31.16809 -1.05616,-12.74139 7.39316,-24.71874 18.65142,-29.99957 m 573.40745,119.93086 c -3.2134,-17.30312 10.4942,-35.10062 27.8423,-36.98823 16.9211,-2.58423 34.0445,10.8313 35.7973,27.79735 2.5842,16.65145 -9.9325,32.53886 -25.9772,36.11184 h -9.3257 c -14.3113,-1.856 -25.7739,-12.76413 -28.3367,-26.9659 z"
     class="cls-1" />
</svg>
